<svg width="26" height="26" viewBox="0 0 26 26" fill="none" xmlns="http://www.w3.org/2000/svg">
<g id="mdi:shopping-outline">
<path id="Vector" d="M20.5833 6.50001H18.4167C18.4167 3.46668 16.0333 1.08334 13 1.08334C9.96667 1.08334 7.58333 3.46668 7.58333 6.50001H5.41667C4.225 6.50001 3.25 7.47501 3.25 8.66668V21.6667C3.25 22.8583 4.225 23.8333 5.41667 23.8333H20.5833C21.775 23.8333 22.75 22.8583 22.75 21.6667V8.66668C22.75 7.47501 21.775 6.50001 20.5833 6.50001ZM13 3.25001C14.8417 3.25001 16.25 4.65834 16.25 6.50001H9.75C9.75 4.65834 11.1583 3.25001 13 3.25001ZM20.5833 21.6667H5.41667V8.66668H20.5833V21.6667ZM13 13C11.1583 13 9.75 11.5917 9.75 9.75001H7.58333C7.58333 12.7833 9.96667 15.1667 13 15.1667C16.0333 15.1667 18.4167 12.7833 18.4167 9.75001H16.25C16.25 11.5917 14.8417 13 13 13Z" fill="#E57C35"/>
</g>
</svg>
