<svg width="33" height="33" viewBox="0 0 33 33" fill="none" xmlns="http://www.w3.org/2000/svg">
<g id="carbon:delivery-truck">
<path id="Vector" d="M30.855 17.1291L27.7612 9.91031C27.6823 9.72392 27.5502 9.56488 27.3815 9.45301C27.2128 9.34115 27.0149 9.28141 26.8125 9.28125H23.7188V7.21875C23.7188 6.94525 23.6101 6.68294 23.4167 6.48955C23.2233 6.29615 22.961 6.1875 22.6875 6.1875H3.09375C2.82025 6.1875 2.55794 6.29615 2.36455 6.48955C2.17115 6.68294 2.0625 6.94525 2.0625 7.21875V24.75C2.0625 25.0235 2.17115 25.2858 2.36455 25.4792C2.55794 25.6726 2.82025 25.7812 3.09375 25.7812H5.30062C5.5381 26.6551 6.05653 27.4265 6.77593 27.9765C7.49532 28.5265 8.37571 28.8245 9.28125 28.8245C10.1868 28.8245 11.0672 28.5265 11.7866 27.9765C12.506 27.4265 13.0244 26.6551 13.2619 25.7812H19.7381C19.9756 26.6551 20.494 27.4265 21.2134 27.9765C21.9328 28.5265 22.8132 28.8245 23.7188 28.8245C24.6243 28.8245 25.5047 28.5265 26.2241 27.9765C26.9435 27.4265 27.4619 26.6551 27.6994 25.7812H29.9062C30.1798 25.7812 30.4421 25.6726 30.6355 25.4792C30.8289 25.2858 30.9375 25.0235 30.9375 24.75V17.5312C30.9372 17.393 30.9092 17.2562 30.855 17.1291ZM23.7188 11.3438H26.1319L28.3387 16.5H23.7188V11.3438ZM9.28125 26.8125C8.87333 26.8125 8.47456 26.6915 8.13539 26.4649C7.79621 26.2383 7.53185 25.9162 7.37575 25.5393C7.21964 25.1624 7.1788 24.7477 7.25838 24.3476C7.33796 23.9475 7.5344 23.58 7.82284 23.2916C8.11129 23.0031 8.47879 22.8067 8.87888 22.7271C9.27896 22.6475 9.69366 22.6884 10.0705 22.8445C10.4474 23.0006 10.7695 23.265 10.9962 23.6041C11.2228 23.9433 11.3438 24.3421 11.3438 24.75C11.3438 25.297 11.1265 25.8216 10.7397 26.2084C10.3529 26.5952 9.82826 26.8125 9.28125 26.8125ZM19.7381 23.7188H13.2619C13.0244 22.8449 12.506 22.0735 11.7866 21.5235C11.0672 20.9735 10.1868 20.6755 9.28125 20.6755C8.37571 20.6755 7.49532 20.9735 6.77593 21.5235C6.05653 22.0735 5.5381 22.8449 5.30062 23.7188H4.125V8.25H21.6562V21.2025C21.1867 21.475 20.7755 21.8376 20.4463 22.2694C20.1172 22.7012 19.8765 23.1937 19.7381 23.7188ZM23.7188 26.8125C23.3108 26.8125 22.9121 26.6915 22.5729 26.4649C22.2337 26.2383 21.9694 25.9162 21.8132 25.5393C21.6571 25.1624 21.6163 24.7477 21.6959 24.3476C21.7755 23.9475 21.9719 23.58 22.2603 23.2916C22.5488 23.0031 22.9163 22.8067 23.3164 22.7271C23.7165 22.6475 24.1312 22.6884 24.508 22.8445C24.8849 23.0006 25.207 23.265 25.4337 23.6041C25.6603 23.9433 25.7812 24.3421 25.7812 24.75C25.7812 25.297 25.564 25.8216 25.1772 26.2084C24.7904 26.5952 24.2658 26.8125 23.7188 26.8125ZM28.875 23.7188H27.6994C27.4713 22.8355 26.9569 22.0528 26.2367 21.493C25.5164 20.9332 24.631 20.628 23.7188 20.625V18.5625H28.875V23.7188Z" fill="#E57C35"/>
</g>
</svg>
